#!OML:ASF F:\VICON\USERDATA\INSTALL\rory3\rory3.ASF
:FULLY-SPECIFIED
:DEGREES
3898
root 4.36096 17.0179 -7.70765 4.04727 -34.0186 3.09199
lowerback 7.88123 -0.275814 -0.978992
upperback 0.00666487 -0.313146 3.57509
thorax -4.39416 -0.103072 4.31584
lowerneck -24.7325 -2.33971 -8.77168
upperneck 20.7561 -2.1488 8.12621
head 10.9764 -0.652502 4.08428
rclavicle -5.86415e-014 0
rhumerus -21.0495 25.259 -91.1898
rradius 123.847
rwrist -1.26091
rhand -17.6718 18.4198
rfingers 7.12502
rthumb 8.58702 -11.3855
lclavicle -5.86415e-014 0
lhumerus -10.6342 -6.59199 87.0286
lradius 132.717
lwrist 4.03148
lhand -20.4336 12.9751
lfingers 7.12502
lthumb 5.92118 42.8723
rfemur -17.0252 7.25208 16.8073
rtibia 50.7861
rfoot -28.1683 2.84117
rtoes -4.56058
lfemur -16.8102 5.66358 -20.1075
ltibia 52.8578
lfoot -19.3502 -0.554795
ltoes -36.5024
3899
root 4.38115 17.1512 -7.70133 4.37144 -34.8952 2.78058
lowerback 7.638 -0.347498 -0.67286
upperback 0.0277127 -0.380602 3.70975
thorax -4.231 -0.145194 4.2864
lowerneck -24.6063 -2.14224 -8.67765
upperneck 20.851 -1.88012 7.96041
head 10.9583 -0.547249 4.05157
rclavicle -1.61214e-013 -1.59028e-015
rhumerus -22.2459 25.7304 -91.6829
rradius 123.515
rwrist -1.7876
rhand -17.7911 18.1418
rfingers 7.12502
rthumb 8.47197 -11.6682
lclavicle -1.61214e-013 -1.59028e-015
lhumerus -11.2972 -6.51631 87.1455
lradius 132.407
lwrist 3.95207
lhand -20.5112 12.7289
lfingers 7.12502
lthumb 5.84632 42.6282
rfemur -16.6804 7.97524 16.9237
rtibia 49.2056
rfoot -26.7334 2.6798
rtoes -3.75033
lfemur -17.2012 5.74625 -19.8721
ltibia 52.7759
lfoot -17.1129 -1.47088
ltoes -34.1722
3900
root 4.39945 17.2882 -7.69765 4.59169 -35.8053 2.68362
lowerback 7.38015 -0.368368 -0.563642
upperback 0.0459741 -0.401985 3.76298
thorax -4.06566 -0.160473 4.27762
lowerneck -24.4249 -1.94303 -8.53371
upperneck 20.9439 -1.64143 7.82851
head 10.933 -0.44811 4.01742
rclavicle -4.55217e-014 1.11319e-014
rhumerus -23.3304 26.0628 -92.1983
rradius 123.128
rwrist -2.0892
rhand -17.8858 17.94
rfingers 7.12502
rthumb 8.38059 -11.8737
lclavicle -4.55217e-014 1.11319e-014
lhumerus -11.8499 -6.5626 87.2174
lradius 132.034
lwrist 3.46298
lhand -20.6987 13.1692
lfingers 7.12502
lthumb 5.66526 43.0735
rfemur -16.3466 8.68182 16.8578
rtibia 47.6165
rfoot -25.2003 2.49193
rtoes -2.35487
lfemur -17.769 5.8555 -19.729
ltibia 52.716
lfoot -14.5168 -3.00681
ltoes -31.9927
3901
root 4.41783 17.4176 -7.69831 4.67976 -36.6931 2.7267
lowerback 7.25218 -0.381392 -0.631458
upperback 0.0265941 -0.424028 3.84768
thorax -4.01124 -0.170224 4.40573
lowerneck -24.2945 -1.76038 -8.51286
upperneck 21.2056 -1.37501 7.66655
head 10.9783 -0.351535 4.00262
rclavicle -6.95746e-015 3.65764e-014
rhumerus -24.5364 26.4066 -92.6614
rradius 122.786
rwrist -2.25597
rhand -17.9005 18.0828
rfingers 7.12502
rthumb 8.36632 -11.7315
lclavicle -6.95746e-015 3.65764e-014
lhumerus -12.3404 -6.45724 87.342
lradius 131.504
lwrist 2.75244
lhand -20.9936 13.308
lfingers 7.12502
lthumb 5.38051 43.2196
rfemur -16.0278 9.23434 16.6973
rtibia 46.0763
rfoot -23.629 2.15068
rtoes -0.691058
lfemur -18.3401 6.07367 -19.6647
ltibia 52.6558
lfoot -11.6688 -4.20016
ltoes -34.356
3902
root 4.4341 17.546 -7.69696 4.67648 -37.4995 2.9761
lowerback 7.10603 -0.405404 -0.791503
upperback -0.0131863 -0.46921 3.88089
thorax -3.96539 -0.189492 4.5345
lowerneck -24.1475 -1.61691 -8.61205
upperneck 21.4557 -1.12235 7.5183
head 11.0192 -0.270108 4.01017
rclavicle 1.31198e-013 -1.11319e-014
rhumerus -25.7579 26.7315 -93.0319
rradius 122.582
rwrist -2.46416
rhand -17.804 18.1889
rfingers 7.12502
rthumb 8.45947 -11.6217
lclavicle 1.31198e-013 -1.11319e-014
lhumerus -12.8148 -6.37516 87.4246
lradius 130.939
lwrist 2.04676
lhand -21.3551 12.9759
lfingers 7.12502
lthumb 5.03149 42.8961
rfemur -15.7954 9.5255 16.3675
rtibia 44.6331
rfoot -22.0398 1.60083
rtoes -0.492837
lfemur -18.9553 6.27392 -19.803
ltibia 52.5666
lfoot -8.29277 -4.9871
ltoes -34.1957
3903
root 4.44843 17.6785 -7.69022 4.75046 -38.2505 3.14913
lowerback 6.84254 -0.433136 -0.786564
upperback 0.00520092 -0.510979 3.85187
thorax -3.79475 -0.213442 4.49989
lowerneck -24.1293 -1.47912 -8.57752
upperneck 21.6854 -0.91462 7.37112
head 11.0803 -0.195717 3.98937
rclavicle -8.17005e-014 7.79236e-014
rhumerus -26.8275 26.9486 -93.4057
rradius 122.5
rwrist -2.51616
rhand -17.3958 18.0193
rfingers 7.12502
rthumb 8.85343 -11.7749
lclavicle -8.17005e-014 7.79236e-014
lhumerus -13.2044 -6.34077 87.3184
lradius 130.485
lwrist 1.3127
lhand -21.6171 12.7668
lfingers 7.12502
lthumb 4.77848 42.6929
rfemur -15.6038 9.59963 16.1142
rtibia 43.2769
rfoot -20.4103 1.05643
rtoes -0.726954
lfemur -19.6521 6.33914 -19.8733
ltibia 52.4577
lfoot -4.62707 -5.68798
ltoes -33.682
3904
root 4.46155 17.8091 -7.68302 4.89874 -38.9469 3.21806
lowerback 6.54052 -0.456917 -0.67904
upperback 0.0339641 -0.54092 3.80989
thorax -3.59379 -0.233978 4.39108
lowerneck -23.971 -1.38976 -8.53226
upperneck 21.7708 -0.794528 7.2595
head 11.0705 -0.155766 3.95963
rclavicle 7.13637e-014 -3.33958e-014
rhumerus -27.8533 27.0321 -93.8088
rradius 122.423
rwrist -2.05326
rhand -16.9249 18.0299
rfingers 7.12502
rthumb 9.30783 -11.7446
lclavicle 7.13637e-014 -3.33958e-014
lhumerus -13.3804 -6.16567 87.0272
lradius 130.006
lwrist 0.737293
lhand -21.6011 12.6624
lfingers 7.12502
lthumb 4.79397 42.5881
rfemur -15.415 9.48239 15.9777
rtibia 42.0418
rfoot -18.9938 0.481617
rtoes 0.335293
lfemur -20.4539 6.38347 -19.8334
ltibia 52.344
lfoot -1.09616 -6.48545
ltoes -32.735
3905
root 4.47507 17.9341 -7.68051 5.06859 -39.5815 3.14389
lowerback 6.08109 -0.492768 -0.192352
upperback 0.264138 -0.575434 3.56314
thorax -3.10111 -0.269114 3.84701
lowerneck -23.715 -1.42487 -8.51203
upperneck 21.5572 -0.914534 7.43872
head 10.9553 -0.186613 3.99412
rclavicle -2.36554e-014 -7.95139e-015
rhumerus -28.5097 26.9093 -94.3724
rradius 122.284
rwrist -1.1978
rhand -16.792 18.2566
rfingers 7.12502
rthumb 9.43602 -11.5122
lclavicle -2.36554e-014 -7.95139e-015
lhumerus -13.1068 -6.10387 86.1923
lradius 129.525
lwrist 0.474648
lhand -21.3728 12.4629
lfingers 7.12502
lthumb 5.01444 42.3836
rfemur -15.1271 9.1503 16.0231
rtibia 41.0051
rfoot -17.9807 -0.144338
rtoes 1.92269
lfemur -21.2772 6.42468 -19.6472
ltibia 52.2812
lfoot 2.13331 -7.27854
ltoes -29.9757
3906
root 4.49086 18.0476 -7.68181 5.20938 -40.19 3.00762
lowerback 6.09759 -0.446232 0.0302389
upperback 0.279261 -0.49885 3.56739
thorax -3.10176 -0.234615 3.7188
lowerneck -23.3972 -1.36071 -8.35734
upperneck 21.3592 -0.800778 7.06667
head 10.8107 -0.171096 3.83715
rclavicle 2.52457e-014 7.95139e-015
rhumerus -29.4702 26.8422 -94.6319
rradius 122.21
rwrist -0.402577
rhand -16.9907 18.6047
rfingers 7.12502
rthumb 9.24434 -11.1726
lclavicle 2.52457e-014 7.95139e-015
lhumerus -13.2481 -6.23184 85.7675
lradius 129.33
lwrist 0.331731
lhand -21.3391 12.6414
lfingers 7.12502
lthumb 5.04693 42.5613
rfemur -14.7777 8.59515 16.1982
rtibia 40.278
rfoot -17.2891 -0.816951
rtoes 1.52608
lfemur -22.0625 6.48537 -19.4282
ltibia 52.2901
lfoot 4.36425 -8.02239
ltoes -26.7871
3907
root 4.50987 18.1433 -7.68944 5.2643 -40.7163 3.01455
lowerback 6.26712 -0.41478 0.0350853
upperback 0.198428 -0.448837 3.64319
thorax -3.28335 -0.207174 3.79486
lowerneck -23.1409 -1.29117 -8.37289
upperneck 21.3471 -0.642843 6.7755
head 10.7439 -0.140954 3.75273
rclavicle 6.34123e-014 -4.45278e-014
rhumerus -30.5629 26.8732 -94.7565
rradius 122.274
rwrist 0.357134
rhand -17.2984 18.9412
rfingers 7.12502
rthumb 8.94737 -10.849
lclavicle 6.34123e-014 -4.45278e-014
lhumerus -13.5613 -6.32463 85.5226
lradius 129.322
lwrist 0.334196
lhand -21.2874 12.954
lfingers 7.12502
lthumb 5.09686 42.8727
rfemur -14.4668 7.68879 16.3209
rtibia 39.9266
rfoot -16.7755 -1.22261
rtoes 0.0507788
lfemur -22.8976 6.61839 -19.3588
ltibia 52.3974
lfoot 5.18909 -8.59495
ltoes -25.9326
3908
root 4.53107 18.2281 -7.70214 5.33083 -41.1128 3.02671
lowerback 6.32238 -0.434409 0.148964
upperback 0.181434 -0.465659 3.63497
thorax -3.33182 -0.216938 3.7244
lowerneck -23.0491 -1.19147 -8.55717
upperneck 21.4905 -0.493522 6.93239
head 10.7666 -0.0724389 3.86778
rclavicle -3.598e-014 -2.22639e-014
rhumerus -31.5002 26.8692 -94.9265
rradius 122.515
rwrist 0.918549
rhand -17.4814 19.0194
rfingers 7.12502
rthumb 8.77083 -10.7784
lclavicle -3.598e-014 -2.22639e-014
lhumerus -13.7056 -6.24961 85.0812
lradius 129.278
lwrist 0.567593
lhand -21.1167 12.7983
lfingers 7.12502
lthumb 5.26164 42.7129
rfemur -14.1516 6.53158 16.4789
rtibia 39.9508
rfoot -16.4781 -1.06431
rtoes -0.497782
lfemur -23.7979 6.67375 -19.2999
ltibia 52.5853
lfoot 5.01638 -8.25771
ltoes -27.3188
3909
root 4.55206 18.3068 -7.71959 5.33388 -41.4916 3.09556
lowerback 6.35315 -0.417306 0.273228
upperback 0.23879 -0.438199 3.52931
thorax -3.29299 -0.206602 3.54079
lowerneck -22.8549 -1.16713 -8.62046
upperneck 21.305 -0.454399 6.95856
head 10.659 -0.0562438 3.88579
rclavicle -4.77083e-014 1.59028e-014
rhumerus -32.0759 26.7365 -95.0572
rradius 122.792
rwrist 1.10899
rhand -17.3904 18.9916
rfingers 7.12502
rthumb 8.85865 -10.8025
lclavicle -4.77083e-014 1.59028e-014
lhumerus -13.5895 -6.27008 84.4179
lradius 129.277
lwrist 1.12988
lhand -20.8895 12.7594
lfingers 7.12502
lthumb 5.48106 42.6685
rfemur -13.8187 5.33684 16.6315
rtibia 40.3393
rfoot -16.3445 -0.88009
rtoes -0.640127
lfemur -24.7065 6.8549 -19.3393
ltibia 52.8153
lfoot 4.39284 -6.64242
ltoes -28.9763
3910
root 4.57215 18.3782 -7.74056 5.26648 -42.0305 3.18803
lowerback 6.55192 -0.336025 0.208222
upperback 0.272785 -0.332632 3.48783
thorax -3.37544 -0.152946 3.52716
lowerneck -22.8644 -1.17471 -8.88477
upperneck 21.4232 -0.435047 7.1841
head 10.703 -0.0433164 4.02027
rclavicle -7.15625e-015 -9.54166e-015
rhumerus -32.5587 26.688 -95.0996
rradius 123.067
rwrist 1.12945
rhand -17.266 19.0223
rfingers 7.12502
rthumb 8.9787 -10.7667
lclavicle -7.15625e-015 -9.54166e-015
lhumerus -13.5174 -6.35074 83.7882
lradius 129.405
lwrist 1.73406
lhand -20.9686 13.0696
lfingers 7.12502
lthumb 5.40471 42.9807
rfemur -13.5368 4.1696 16.8321
rtibia 41.0015
rfoot -15.9887 -1.46364
rtoes -3.78159
lfemur -25.5966 7.39765 -19.4827
ltibia 53.0137
lfoot 4.09838 -4.04993
ltoes -27.3699
3911
root 4.59444 18.4387 -7.7628 5.33424 -42.5912 3.15472
lowerback 6.75041 -0.179542 0.181552
upperback 0.317998 -0.123497 3.49794
thorax -3.4524 -0.0484306 3.53511
lowerneck -22.6326 -1.19906 -8.822
upperneck 21.0967 -0.419882 6.87973
head 10.5394 -0.066634 3.88642
rclavicle 6.16232e-015 1.74931e-014
rhumerus -32.9202 26.5483 -94.9972
rradius 123.415
rwrist 1.12064
rhand -17.4114 19.017
rfingers 7.12502
rthumb 8.83834 -10.7779
lclavicle 6.16232e-015 1.74931e-014
lhumerus -13.2704 -6.5295 83.2856
lradius 129.52
lwrist 2.27851
lhand -21.1814 13.4601
lfingers 7.12502
lthumb 5.19921 43.3763
rfemur -13.3201 3.0713 17.1225
rtibia 41.857
rfoot -15.375 -2.29415
rtoes -6.95329
lfemur -26.6473 8.07562 -19.5795
ltibia 53.0726
lfoot 4.06305 -1.51576
ltoes -23.6277
